<svg width="132" height="21" fill="none" xmlns="http://www.w3.org/2000/svg"><path d="m8.224 5.787 1.44.91-.55 5.205 7.752-4.727C16.355 3.095 12.848 0 8.736 0 4.24 0 .542 3.699.542 8.193c0 .715.094 1.426.278 2.116l7.404-4.522Z" fill="#230B59"/><path d="m8.46 14.529-1.44-.91.55-5.203-6.062 3.7a8.204 8.204 0 0 0 7.248 4.374c4.086 0 7.578-3.056 8.121-7.105L8.461 14.53ZM9.182 5.038a1.158 1.158 0 1 0 0-2.317 1.158 1.158 0 0 0 0 2.317ZM21.037 15.847l2.035-.03V1.437l-2.035.03v14.38Zm9.732-9.992c-.91 0-2.46.405-3.148 1.505v-1.3h-1.92v9.787h1.92V10.55c0-1.93 1.457-2.794 2.9-2.794 1.366 0 2.276 1.024 2.276 2.546v5.545h1.919V10.2c0-1.39-.383-2.529-1.139-3.289-.682-.692-1.654-1.056-2.808-1.056Zm9.723 7.474-2.938-7.267h-2.056l4.065 9.785h1.84l4.084-9.785h-2.075l-2.92 7.267ZM76.34 5.855c-2.959 0-5.11 2.13-5.11 5.069 0 2.938 2.199 5.13 5.11 5.13l.127.001c2.747 0 5.007-2.26 5.007-5.007 0-.041 0-.083-.002-.124 0-2.939-2.148-5.069-5.132-5.069Zm0 8.383c-1.796 0-3.161-1.425-3.161-3.314 0-1.855 1.365-3.253 3.168-3.253h.044a3.176 3.176 0 0 1 3.16 3.253c0 1.889-1.381 3.314-3.211 3.314Zm11.764-8.383c-1.418 0-2.715.617-3.375 1.593V6.06h-1.92v14.484h1.92v-6.063c.656.986 1.905 1.566 3.396 1.566 2.829 0 4.882-2.14 4.882-5.09 0-2.949-2.062-5.102-4.903-5.102Zm-.166 8.383h-.01a3.215 3.215 0 0 1-3.2-3.2l.001-.053c0-1.889 1.38-3.314 3.21-3.314 1.754 0 3.126 1.457 3.126 3.314s-1.345 3.253-3.127 3.253Zm25.104-6.812c-.656-.986-1.905-1.566-3.396-1.566-2.829 0-4.882 2.14-4.882 5.089 0 2.95 2.062 5.11 4.902 5.11 1.418 0 2.716-.618 3.376-1.594v1.382h1.921V.784h-1.921v6.642Zm-3.221 6.812c-1.743 0-3.106-1.457-3.106-3.314s1.326-3.253 3.106-3.253h.021a3.225 3.225 0 0 1 3.209 3.21v.043c-.009 1.607-1.141 3.314-3.23 3.314Zm7.572-8.176h1.921v9.785h-1.921V6.062Zm13.822-.002h-2.073v1.138c-.683-.851-1.86-1.347-3.235-1.347h-.154c-2.829 0-4.882 2.139-4.882 5.089 0 2.95 2.062 5.11 4.902 5.11h.162c1.308 0 2.517-.529 3.213-1.367v1.164h2.067V6.06Zm-5.221 8.17c-1.705-.045-3.027-1.479-3.027-3.309s1.297-3.206 3.027-3.247a3.205 3.205 0 0 1 3.148 3.247c0 1.587-1.113 3.266-3.148 3.312v-.002ZM60.279 9.866c-1.004-.257-1.714-.487-1.714-1.113 0-.703.71-1.194 1.73-1.194.74.014 1.453.272 2.032.732l.048.037 1.03-1.43-.045-.036a4.98 4.98 0 0 0-3.186-1.049c-1.732 0-3.596.954-3.596 3.043 0 1.457 1.215 2.167 2.233 2.503.341.114.682.203 1.029.29 1.062.273 1.982.51 1.982 1.338 0 .58-.585 1.195-1.669 1.195a4.678 4.678 0 0 1-2.813-1.04l-.05-.037-1.028 1.47.043.034a6.087 6.087 0 0 0 3.892 1.318c1.752 0 3.616-1.044 3.616-2.981 0-1.937-1.786-2.631-3.534-3.08Zm43.236.922c0-2.92-1.887-4.955-4.618-4.955-2.761 0-4.764 2.087-4.764 4.96a5.155 5.155 0 0 0 1.46 3.732 4.553 4.553 0 0 0 3.215 1.29h.091c1.691-.029 2.795-.309 4.135-1.756l.041-.044-1.331-1.267-.041.045a3.51 3.51 0 0 1-2.738 1.234c-1.484 0-2.654-1.088-2.93-2.715l7.414-.016h.054v-.055a1.691 1.691 0 0 0 0-.266c.014-.037.012-.087.012-.187ZM96.329 9.8c.253-1.413 1.18-2.191 2.616-2.191 1.39 0 2.337.817 2.546 2.191h-5.162Zm-41.13.988c0-2.92-1.9-4.955-4.613-4.955-2.761 0-4.764 2.087-4.764 4.96a5.155 5.155 0 0 0 1.459 3.732 4.553 4.553 0 0 0 3.216 1.29h.089c1.693-.029 2.797-.309 4.137-1.756l.041-.044-1.331-1.267-.041.045a3.511 3.511 0 0 1-2.745 1.234c-1.486 0-2.654-1.088-2.93-2.715l7.411-.016h.057v-.055a2.005 2.005 0 0 0 0-.266c.014-.037.014-.087.014-.187ZM48.007 9.8c.255-1.413 1.181-2.191 2.617-2.191 1.39 0 2.338.817 2.547 2.191h-5.164Zm22.1 4.015c-.265.07-.538.104-.811.098a1.594 1.594 0 0 1-1.19-.455c-.21-.246-.253-.624-.253-1.113V7.733h2.731V6.06h-2.731V2.892H65.93V6.06h-1.056v1.673h1.056v4.51c0 1.086.241 1.885.737 2.44a3.292 3.292 0 0 0 2.574 1.08 4.96 4.96 0 0 0 1.427-.196l.057-.019-.562-1.75-.057.016Zm48.247-12.44h-.003c-.673 0-1.227.554-1.227 1.227l.001.022-.001.019c0 .664.547 1.21 1.211 1.21h.046c.673 0 1.227-.553 1.227-1.226v-.007a1.25 1.25 0 0 0-1.245-1.245h-.009Z" fill="#230B59"/></svg>