<svg fill="none" xmlns="http://www.w3.org/2000/svg" viewBox="0 0 133 21"><path fill-rule="evenodd" clip-rule="evenodd" d="M14.242 0h5.99c.262 0 .462.203.447.453v20.11c0 .25-.2.453-.447.453h-6.174a.538.538 0 0 1-.216-.047c-.008 0-.015-.004-.023-.008s-.015-.008-.023-.008a.643.643 0 0 1-.185-.125l-6.713-6.812v6.53c0 .25-.2.454-.447.454H.461a.477.477 0 0 1-.322-.14.428.428 0 0 1-.139-.33V.453C0 .203.2 0 .447 0h6.19c.076 0 .153.016.215.047.007 0 .015.004.023.008s.015.007.023.007c.062.032.123.063.185.126l6.713 6.796V.454c0-.25.2-.454.446-.454zm51.165 3.203h2.74c.154 0 .293.14.293.297v13.656a.295.295 0 0 1-.293.297H66.1a.385.385 0 0 1-.385-.281l-.216-.672c-.308.28-.693.53-1.17.78-.554.282-1.232.438-2.017.454-.092.016-.185.016-.277.016-.77 0-1.432-.157-2.033-.453a4.582 4.582 0 0 1-1.509-1.204 5.223 5.223 0 0 1-.939-1.734 6.638 6.638 0 0 1-.323-2.063c0-.718.123-1.39.339-2.046a5.47 5.47 0 0 1 .954-1.72c.4-.5.909-.89 1.494-1.171.585-.297 1.247-.438 1.97-.438.74 0 1.371.157 1.88.438.523.281.923.594 1.2.937h.046V3.5c0-.172.139-.297.293-.297zm-4.373 10.906c.2.25.462.438.755.594a2.23 2.23 0 0 0 1.031.234c.385 0 .724-.062 1.016-.219.293-.14.54-.343.755-.593a2.58 2.58 0 0 0 .493-.844c.107-.313.169-.64.169-.969 0-.328-.062-.656-.17-.969a2.882 2.882 0 0 0-.492-.843c-.2-.25-.462-.438-.755-.594a2.37 2.37 0 0 0-1.016-.219c-.385 0-.739.063-1.032.219-.307.14-.554.344-.754.578-.215.234-.354.516-.462.828a2.96 2.96 0 0 0-.154.969c0 .328.046.64.154.969.108.328.262.609.462.859zm66.023-6.797h-2.078l-.262-2.344a.403.403 0 0 0-.4-.36h-2.31a.295.295 0 0 0-.293.298v2.39l.016 6.829c0 .546.061 1.046.185 1.5.123.453.323.828.6 1.156.277.328.647.578 1.109.734.462.172 1.031.25 1.693.25.355 0 .709-.031 1.047-.094.247-.046.478-.093.662-.14a.299.299 0 0 0 .216-.281l-.031-1.86c0-.187-.169-.312-.354-.281a.301.301 0 0 0-.054.008 3.094 3.094 0 0 1-.577.055c-.478 0-.801-.126-.986-.36-.184-.234-.277-.61-.277-1.078V9.812h2.079a.294.294 0 0 0 .292-.297V7.61a.273.273 0 0 0-.277-.297zm-90.18.938a3.436 3.436 0 0 0-1.14-.954c-.462-.234-1.016-.359-1.663-.375h-.169c-.755.016-1.386.157-1.925.422-.477.25-.878.516-1.17.797l-.2-.656a.385.385 0 0 0-.385-.281h-2.218a.294.294 0 0 0-.292.297v9.64c0 .157.123.297.292.297h2.756a.295.295 0 0 0 .293-.297v-5.25c0-.281.03-.562.108-.828.077-.265.185-.5.339-.703.154-.203.338-.36.554-.484.215-.11.477-.172.785-.172.308 0 .54.062.74.172.2.109.353.28.461.468.108.204.185.422.231.688.046.265.077.531.077.828v5.297c0 .156.123.297.293.297H37.4a.295.295 0 0 0 .292-.297v-6.047c0-.5-.061-1.016-.184-1.516-.14-.5-.34-.953-.632-1.343zm49.455-1.047h-2.818a.297.297 0 0 0-.277.218l-1.709 6.25h-.046L79.68 7.406a.297.297 0 0 0-.277-.219h-2.91a.297.297 0 0 0-.277.219l-1.74 6.265h-.061l-1.679-6.25a.297.297 0 0 0-.277-.218h-2.956c-.2 0-.339.203-.277.39l3.28 9.64a.296.296 0 0 0 .276.204h2.926c.123 0 .246-.078.277-.203l1.879-6.156h.046l1.924 6.172c.031.125.154.203.278.203h2.925a.296.296 0 0 0 .277-.203l3.295-9.641c.062-.203-.077-.406-.277-.406zm13.919-4h2.802c.154 0 .278.14.293.297v13.64a.295.295 0 0 1-.293.297h-2.802a.295.295 0 0 1-.292-.297V3.5c0-.172.138-.297.292-.297zm8.345 0h-2.802a.294.294 0 0 0-.292.297v13.64c0 .157.123.297.292.297h2.802a.295.295 0 0 0 .293-.297V3.5a.306.306 0 0 0-.293-.297zM95.231 6.859h2.31c.154 0 .277.125.277.281v10a.294.294 0 0 1-.293.297h-2.047a.385.385 0 0 1-.385-.281l-.247-.781c-.323.328-.754.625-1.293.906-.462.234-1 .375-1.617.422-.17.015-.339.03-.508.03-.77 0-1.432-.155-2.032-.452a4.583 4.583 0 0 1-1.51-1.203 5.226 5.226 0 0 1-.938-1.735 6.638 6.638 0 0 1-.324-2.062c0-.719.123-1.39.339-2.047a5.47 5.47 0 0 1 .955-1.719c.4-.5.908-.89 1.493-1.172.585-.297 1.247-.437 1.97-.437.832 0 1.525.156 2.095.437.446.219.8.469 1.093.719l.277-.922a.418.418 0 0 1 .385-.281zm-5.266 6.39c.108.329.262.61.462.86s.462.453.755.61c.292.14.646.218 1.031.218.385 0 .724-.063 1.017-.219.292-.14.538-.344.754-.594.216-.25.385-.53.493-.843.108-.313.17-.64.17-.969 0-.328-.063-.656-.17-.969a2.878 2.878 0 0 0-.493-.844c-.2-.25-.462-.437-.754-.593a2.37 2.37 0 0 0-1.017-.219c-.385 0-.739.063-1.031.219-.308.14-.555.343-.755.578-.215.234-.354.515-.462.828-.107.313-.154.64-.154.969 0 .328.047.64.154.968zM56.877 6.953h-.03l.03-.032h-.447c-.43 0-.831.079-1.2.25-.155.047-.293.11-.432.188-.539.266-.954.562-1.262.89l-.2-.718a.398.398 0 0 0-.385-.297h-2.202a.294.294 0 0 0-.293.297v9.625c0 .156.123.297.293.297h2.74a.294.294 0 0 0 .293-.297v-4.953c0-.203.046-.438.123-.719a2.3 2.3 0 0 1 .4-.766 2.3 2.3 0 0 1 .724-.593c.308-.157.678-.25 1.124-.25.139 0 .277 0 .416.015l.139.016a.306.306 0 0 0 .323-.266l.108-2.375a.282.282 0 0 0-.262-.312zm-10.578.313A4.39 4.39 0 0 1 47.9 8.359a5.082 5.082 0 0 1 1.017 1.735c.246.687.369 1.469.369 2.344v.406c0 .14 0 .265-.015.39h-7.314c.015.282.108.547.246.782a2.6 2.6 0 0 0 .555.609c.23.172.477.313.754.406.277.094.57.14.862.14.524 0 .97-.093 1.34-.296.262-.14.493-.313.677-.516.123-.14.34-.14.478 0l1.432 1.47a.354.354 0 0 1 0 .5c-.355.358-.77.64-1.248.874-.785.375-1.678.563-2.71.563a6.484 6.484 0 0 1-2.14-.36 5.19 5.19 0 0 1-1.77-1.047 4.991 4.991 0 0 1-1.201-1.703c-.293-.672-.431-1.437-.431-2.297 0-.828.154-1.593.43-2.265a4.943 4.943 0 0 1 1.155-1.719 5.35 5.35 0 0 1 1.725-1.094 5.672 5.672 0 0 1 2.14-.39c.74 0 1.432.125 2.048.375zm-4.127 3.14a1.81 1.81 0 0 0-.2.75h4.28a2.09 2.09 0 0 0-.492-1.375c-.339-.39-.831-.578-1.493-.578a2.389 2.389 0 0 0-1.602.578 1.92 1.92 0 0 0-.492.625zm77.064-2.047a4.384 4.384 0 0 0-1.601-1.093 5.437 5.437 0 0 0-2.048-.375 5.67 5.67 0 0 0-2.14.39 5.355 5.355 0 0 0-1.725 1.094 4.966 4.966 0 0 0-1.155 1.719 5.934 5.934 0 0 0-.431 2.265c0 .86.139 1.625.431 2.297a5 5 0 0 0 1.201 1.703 5.204 5.204 0 0 0 1.771 1.047c.678.235 1.386.36 2.14.36 1.032 0 1.925-.188 2.71-.563a4.487 4.487 0 0 0 1.247-.875.352.352 0 0 0 0-.5l-1.432-1.469c-.138-.14-.354-.14-.477 0a2.538 2.538 0 0 1-.677.516c-.37.203-.816.297-1.34.297-.292 0-.585-.047-.862-.14a2.722 2.722 0 0 1-.755-.407 2.61 2.61 0 0 1-.554-.61 1.726 1.726 0 0 1-.246-.78h7.313c.016-.126.016-.25.016-.391v-.406c0-.876-.123-1.657-.37-2.344a4.84 4.84 0 0 0-1.016-1.735zm-5.912 2.797c.015-.265.077-.515.2-.75.123-.234.277-.453.492-.625a2.385 2.385 0 0 1 1.602-.578c.662 0 1.155.188 1.493.578.324.39.493.844.493 1.375h-4.28zm18.599 4.532h.493l.139 1.766h-.339l-.062-1.032c-.015-.125-.015-.297-.015-.484h-.015a6.25 6.25 0 0 1-.127.476l-.012.04-.308.968h-.354l-.308-1c-.013-.061-.033-.134-.053-.21a4.64 4.64 0 0 1-.07-.29h-.016c0 .078-.003.16-.007.242a5.06 5.06 0 0 0-.008.243l-.062 1.031h-.323l.123-1.734h.508l.293.843.029.12.001.005c.022.093.046.195.078.313.046-.156.092-.313.123-.438l.292-.859zm-2.771 1.75h.339v-1.453h.554v-.296h-1.432v.296h.539v1.454z" fill="#230B59"/></svg>