<svg fill="none" xmlns="http://www.w3.org/2000/svg" viewBox="0 0 21 21"><rect x=".244" y=".247" width="20.495" height="20.495" rx="10.247" fill="#371B1B"/><mask id="a" mask-type="alpha" maskUnits="userSpaceOnUse" x="0" y="0" width="21" height="21"><rect x=".244" y=".247" width="20.495" height="20.495" rx="4.44" fill="#fff"/></mask><g mask="url(#a)"><rect x=".244" y=".247" width="20.495" height="20.495" rx="4.437" fill="#4840BB"/></g><path fill-rule="evenodd" clip-rule="evenodd" d="M16.132 15.567v-.032a.222.222 0 0 0-.05-.052c-2.461-1.953-2.151-6.039-1.452-9.831.028-.153.047-.255-.078-.27-.795-.09-3.445.331-4.206.533-.198.053-.215.109-.219.23-.208 7.592 4.588 9.181 5.89 9.428.03.006.096.013.115-.006zm-6.924-7.29c-.976.185-1.88.546-2.662.87a.25.25 0 0 0-.15.275c.308 1.534 1.812 5.858 7.563 6.195.133.006.266-.018.162-.08-.776-.58-3.534-1.177-4.661-7.042-.012-.06-.01-.288-.252-.218zm-2.76 3.6c-.342.201-1.226.765-1.543 1.056-.062.057-.05.098-.023.196.256.908 1.766 2.5 5.516 2.376.177-.006.178-.059.085-.125-.06-.044-1.245-.414-2.329-1.384-.542-.486-1.093-1.223-1.463-1.924-.092-.192-.139-.256-.243-.195z" fill="#fff"/></svg>