<svg width="24" height="24" fill="none" xmlns="http://www.w3.org/2000/svg"><path fill-rule="evenodd" clip-rule="evenodd" d="M19.5 12a7.5 7.5 0 1 1-15 0 7.5 7.5 0 0 1 15 0Zm1.2 0a8.7 8.7 0 1 1-17.4 0 8.7 8.7 0 0 1 17.4 0ZM12 17.036a.855.855 0 0 1-.856-.872c0-.5.387-.887.855-.887.484 0 .872.387.872.887s-.388.872-.872.872ZM11.966 6.9c1.888 0 3.018 1.081 3.018 2.776 0 1.106-.76 1.907-1.475 2.66l-.171.18c-.292.31-.466.556-.566.776-.132.288-.378.548-.695.548-.34 0-.623-.29-.532-.619.127-.455.382-.813.84-1.318.11-.125.23-.25.35-.375.499-.521 1.022-1.069 1.022-1.836 0-1.017-.693-1.662-1.791-1.662-.985 0-1.608.575-1.844 1.442-.081.3-.333.543-.645.543H9.39c-.356 0-.638-.31-.547-.655.39-1.48 1.54-2.46 3.125-2.46Z" fill="#F0F0F2"/></svg>