<svg width="154" height="20" fill="none" xmlns="http://www.w3.org/2000/svg"><path fill-rule="evenodd" clip-rule="evenodd" d="M15.646 1.557c.098.003.187.01.264.02.202.024.171.205.126.475-1.126 6.713-1.624 13.945 2.343 17.403.042.038.1.119.08.149-.02.03-.136.013-.184.01-1.953-.12-9.83-3.252-9.495-16.69.006-.215.034-.314.353-.407 1.066-.31 4.437-.914 6.139-.96h.374ZM3.059 8.324c.186-.131 2.294-1.17 4.231-1.862.388-.124.386.278.404.383 1.81 10.314 6.235 11.612 7.479 12.632.167.111-.047.153-.26.142C5.969 19.648 3.275 11.42 2.78 8.723c-.046-.248.094-.268.28-.399ZM.197 14.867c.459-.561 1.793-1.687 2.348-2.055.169-.112.29.146.44.497.6 1.286 1.493 2.64 2.372 3.53 1.757 1.78 3.678 2.46 3.776 2.54.15.122.148.218-.139.23-6.078.225-8.562-2.65-8.977-4.316-.045-.18-.005-.2.18-.426Z" fill="#fff"/><path d="m32.712 1.338-2.669 10.73-2.416-10.73h-4.609l4.524 18.25h4.13l2.698-10.7 2.67 10.7h4.13l4.553-18.25H41.17l-2.388 10.73-2.641-10.73h-3.428ZM52.318 14.92c-.253.922-.956 1.338-1.855 1.338-1.264 0-2.051-.862-2.192-2.467h8.177v-1.159c0-3.983-2.191-6.717-6.07-6.717-3.652 0-6.35 2.853-6.35 6.985 0 4.16 2.558 6.984 6.435 6.984 3.288 0 5.48-1.872 5.93-4.963h-4.075Zm-1.94-5.379c1.097 0 1.743.832 1.8 1.932h-3.822c.28-1.248.983-1.932 2.023-1.932ZM68.958 19.587v-8.203c0-3.478-2.051-5.499-5.648-5.499-3.26 0-5.423 2.051-5.789 4.637h4.16c.196-.595.674-.981 1.488-.981 1.068 0 1.546.743 1.546 1.605v.862c-.506-.386-1.742-.743-2.782-.743-2.754 0-4.861 1.664-4.861 4.25 0 2.824 2.107 4.31 4.608 4.31 1.349 0 2.613-.476 3.035-.921v.683h4.243Zm-4.243-3.745c-.281.535-1.04.892-1.855.892-.87 0-1.742-.387-1.742-1.308 0-.892.871-1.278 1.742-1.278.815 0 1.574.357 1.855.921v.773ZM74.608.268h-4.412v19.32h4.412V.267ZM77.415 14.98c0 3.389 1.686 4.875 4.665 4.875.983 0 1.939-.179 2.445-.416v-3.954a3.615 3.615 0 0 1-1.405.298c-.871 0-1.35-.446-1.35-1.486V9.838h2.642V6.212h-2.641V2.526h-4.356v3.686h-1.854v3.626h1.854v5.142ZM85.412 19.587h4.412v-8.084c.224-.922.955-1.457 1.826-1.457 1.124 0 1.658.803 1.658 1.902v7.64h4.383v-8.769c0-2.972-1.657-4.904-4.467-4.904-1.462 0-2.698.624-3.4 1.456V.268h-4.412v19.32ZM107.248.357C106.714.149 106.04 0 105.197 0c-3.091 0-4.918 2.021-4.918 5.231v.981h-1.882v3.626h1.882v9.75h4.356v-9.75h2.444V6.212h-2.444v-.713c0-1.07.59-1.605 1.573-1.605.394 0 .731.089 1.04.267V.357ZM116.428 6.153c-.197-.12-.646-.238-1.208-.238-1.265 0-2.248.594-2.866 1.486V6.212h-4.412v13.375h4.412v-7.846c.224-.952 1.039-1.516 2.248-1.516.702 0 1.292.119 1.826.416V6.153ZM130.013 12.9c0-4.132-2.848-6.985-6.698-6.985-3.822 0-6.463 2.853-6.463 6.985 0 4.131 2.876 6.984 6.698 6.984 3.849 0 6.463-2.853 6.463-6.984Zm-4.562 0c0 1.842-.759 3.12-2.136 3.12-1.349 0-2.108-1.277-2.108-3.12 0-1.843.759-3.151 2.108-3.151 1.377 0 2.136 1.308 2.136 3.15ZM130.965 19.587h4.411v-8.084c.225-.922.956-1.457 1.827-1.457 1.124 0 1.658.803 1.658 1.902v7.64h4.383v-8.769c0-2.972-1.658-4.904-4.468-4.904-1.461 0-2.697.624-3.4 1.456V6.212h-4.411v13.375ZM145.589 14.98c0 3.389 1.686 4.875 4.665 4.875.983 0 1.939-.179 2.445-.416v-3.954a3.62 3.62 0 0 1-1.405.298c-.871 0-1.349-.446-1.349-1.486V9.838h2.641V6.212h-2.641V2.526h-4.356v3.686h-1.854v3.626h1.854v5.142Z" fill="#fff"/></svg>